<?xml version="1.0" encoding="UTF-8" standalone="no"?>
<svg
   width="91.894989mm"
   height="91.710289mm"
   viewBox="0 0 91.894989 91.710289"
   version="1.1"
   id="svg600"
   sodipodi:docname="favicon.svg"
   xmlns:inkscape="http://www.inkscape.org/namespaces/inkscape"
   xmlns:sodipodi="http://sodipodi.sourceforge.net/DTD/sodipodi-0.dtd"
   xmlns="http://www.w3.org/2000/svg"
   xmlns:svg="http://www.w3.org/2000/svg">
  <defs
     id="defs604" />
  <sodipodi:namedview
     id="namedview602"
     pagecolor="#ffffff"
     bordercolor="#000000"
     borderopacity="0.25"
     inkscape:showpageshadow="2"
     inkscape:pageopacity="0.0"
     inkscape:pagecheckerboard="0"
     inkscape:deskcolor="#d1d1d1"
     inkscape:document-units="mm"
     showgrid="false" />
  <path
     style="fill:#4b361c;fill-rule:nonzero;stroke:#7c5641;stroke-width:0.575149;stroke-linecap:butt;stroke-linejoin:miter;stroke-miterlimit:4;stroke-dasharray:none;stroke-dashoffset:0"
     vector-effect="non-scaling-stroke"
     d="m 48.858061,19.346473 c 0.772128,-0.307163 1.811025,4.286601 1.570557,4.394206 -0.869818,0.586938 -2.630119,1.013446 -3.124206,0.905841 -0.732676,-0.168256 0.916785,-5.444824 1.553649,-5.300047 z M 56.906224,9.249191 c 5.523249,-3.1185955 9.440246,8.755152 9.064512,9.782292 -0.422695,4.988969 -5.213265,4.988969 -6.857093,4.255298 C 55.638131,22.504198 52.264065,12.23866 56.906224,9.249191 Z m 3.287651,-8.95079817 c 1.200455,0.28368663 0.482814,4.30420917 0.328764,4.53115787 -0.23859,0.4128129 -3.672775,0.3599889 -3.663382,-0.097822 0.197259,-0.9997504 2.57,-4.18486511 3.334618,-4.43333587 z m 10.883052,0.0352199 c 0.700734,-0.0880403 3.751677,2.97381727 3.62017,3.93052507 -0.0507,0.3893353 -1.73776,1.0036636 -3.362793,0.5341136 -0.204777,0.019566 -1.003207,-4.39420615 -0.257377,-4.46463867 z m -0.39264,6.97281817 c 4.713551,-0.8080173 7.531535,2.8583871 8.880405,5.3000471 1.330088,3.200766 -0.03195,10.245973 -6.659837,9.782292 C 68.4299,21.889873 67.268887,7.6977229 70.684287,7.3064309 Z m 13.697281,8.0038731 c 2.596302,0.510635 3.53375,3.345543 3.518726,3.343587 0.253612,1.16018 -1.347002,1.428215 -1.811029,1.316696 -1.876772,-0.170211 -2.293838,-4.852017 -1.707697,-4.660283 z M 49.626431,26.172557 c 1.362026,-0.782583 10.467874,0.96649 12.258233,6.065021 -0.730797,2.502311 -5.823835,7.479542 -11.037106,6.162845 -2.160455,-0.684761 -6.547117,-8.884278 -1.221127,-12.227866 z m 21.322745,6.211756 c 5.587124,0.907797 5.868926,4.66811 8.313051,6.113933 3.945178,2.69013 4.273949,0.831495 4.97844,6.016109 -0.75146,7.874746 -10.719608,8.755153 -14.570854,8.217126 -5.682937,-0.02348 -8.606122,-0.903883 -9.851672,-1.418432 -5.917767,-5.526995 7.420689,-19.515674 11.131035,-18.928736 z m 6.054908,-3.592058 c 0.225438,4.092911 5.226423,6.3311 7.069382,6.757608 0.820974,0.178038 6.661716,0.817799 7.309851,-5.869375 0.341915,-2.204929 0.612441,-5.347002 -1.707696,-7.612581 -3.449212,-3.556841 -11.238123,2.668609 -12.671537,6.724348 z M 21.08401,31.511732 c 0.926178,-1.142571 1.876777,-2.228406 2.378379,-2.107106 0.905512,0.195647 0.300584,5.059402 -0.240469,5.086793 -0.140899,0.119344 -3.357158,0.46955 -3.516844,-0.01761 -0.326886,-0.87258 0.603049,-1.878201 1.378934,-2.962077 z M 36.122651,29.08768 c -0.409546,0.240645 -0.462149,2.531658 0.54669,5.548517 0.328765,0.688673 3.575083,0.377596 3.762948,-0.882363 0.169079,-0.78454 -3.29892,-5.681556 -4.309638,-4.666154 z m -12.797404,8.123216 c 5.652875,0.581068 4.833782,17.477044 -0.426455,18.686135 -5.77311,0.854972 -9.393281,-4.090954 -9.530423,-8.465596 0.623714,-7.156725 7.672432,-10.380969 9.956878,-10.220539 z m 15.404979,1.704075 c 7.11635,0.316947 6.409975,13.767599 1.198583,17.165967 -4.204432,2.054282 -8.547885,0.22108 -8.995005,-2.88382 -0.822851,-9.758814 6.011699,-14.30758 7.796422,-14.282147 z m 13.060417,12.34134 c 1.764059,2.678392 1.936895,5.83416 1.461595,5.793074 -1.698306,-0.125212 -3.381582,-0.75715 -3.535631,-1.009533 -0.514752,-0.725846 0.956236,-6.221538 2.074036,-4.783541 z m -0.875454,7.407152 c -2.355834,-0.995837 -13.731097,7.113683 -14.413049,8.359948 -0.681952,1.240394 0.101448,5.122008 1.331967,6.223494 2.93634,2.703826 7.655524,4.844192 13.047267,-0.105649 3.347765,-3.237938 4.236369,-12.769804 0.03381,-14.477793 z M 8.1081327,47.938158 c -0.3381582,0.01761 -3.9000901,2.705783 -3.6633794,4.619199 0.041333,0.391291 2.6376327,0.136951 3.9132407,-0.894102 0.5711109,-0.424552 0.7946719,-3.766183 -0.2498613,-3.725097 z M 3.693291,55.63291 c 6.889032,-2.152105 13.588319,5.673729 14.465651,8.348207 -0.501601,7.499106 -11.3978057,10.760522 -14.465651,7.694752 -5.9497034,-3.781834 -2.87998024,-15.129294 0,-16.042959 z m 7.26852,23.221206 c 2.218693,-2.216668 3.886939,-2.253841 4.974682,-3.183159 1.976345,-1.539733 2.891251,-5.368522 7.82648,-7.385631 7.704368,-1.555384 12.183085,4.517464 14.450623,11.310287 1.643824,3.852268 3.00585,5.601341 2.833013,6.949341 -1.224883,3.224246 -5.635968,4.826576 -13.150592,4.76202 -13.274584,0.391289 -13.704796,0.04107 -16.710646,-5.632642 -0.787157,-1.383219 -1.033261,-5.980897 -0.22356,-6.820216 z"
     stroke-linecap="round"
     id="path42"
     inkscape:export-filename="..\inkscape new svgs\searxng-wordmark.svg"
     inkscape:export-xdpi="96"
     inkscape:export-ydpi="96" />
</svg>
