<svg xmlns="http://www.w3.org/2000/svg" width="347.32" height="346.622" viewBox="0 0 91.895 91.71"><path stroke-linecap="round" d="M48.858 19.346c.772-.307 1.811 4.287 1.57 4.395-.87.587-2.63 1.013-3.124.906-.732-.169.917-5.445 1.554-5.3zM56.906 9.25c5.523-3.118 9.44 8.755 9.065 9.782-.423 4.99-5.214 4.99-6.857 4.256-3.476-.783-6.85-11.048-2.208-14.038ZM60.194.3c1.2.283.483 4.304.329 4.53-.239.413-3.673.36-3.664-.097.198-1 2.57-4.185 3.335-4.434zm10.883.035c.7-.088 3.752 2.973 3.62 3.93-.05.39-1.738 1.004-3.363.534-.204.02-1.003-4.394-.257-4.464zm-.393 6.972c4.714-.808 7.532 2.859 8.88 5.3 1.33 3.201-.031 10.246-6.66 9.783-4.474-.5-5.635-14.691-2.22-15.083Zm13.698 8.004c2.596.51 3.533 3.346 3.518 3.344.254 1.16-1.347 1.428-1.81 1.317-1.878-.17-2.295-4.852-1.708-4.66zM49.626 26.173c1.362-.783 10.468.966 12.259 6.065-.731 2.502-5.824 7.48-11.037 6.162-2.16-.684-6.548-8.884-1.222-12.227zm21.323 6.211c5.587.908 5.87 4.668 8.313 6.114 3.945 2.69 4.274.832 4.979 6.016-.752 7.875-10.72 8.756-14.571 8.217-5.683-.023-8.606-.903-9.852-1.418-5.918-5.527 7.42-19.516 11.131-18.929zm6.055-3.592c.226 4.093 5.227 6.331 7.07 6.758.82.178 6.661.818 7.31-5.87.341-2.204.612-5.347-1.708-7.612-3.45-3.557-11.239 2.669-12.672 6.724zm-55.92 2.72c.926-1.143 1.877-2.229 2.378-2.107.906.195.301 5.059-.24 5.086-.141.12-3.357.47-3.517-.017-.327-.873.603-1.878 1.379-2.962zm15.039-2.424c-.41.24-.462 2.531.546 5.548.33.689 3.575.378 3.763-.882.17-.785-3.299-5.682-4.31-4.666zM23.325 37.21c5.653.581 4.834 17.477-.426 18.686-5.773.855-9.393-4.09-9.53-8.466.623-7.156 7.672-10.38 9.956-10.22zm15.405 1.704c7.117.317 6.41 13.768 1.199 17.166-4.205 2.054-8.548.221-8.995-2.884-.823-9.759 6.012-14.307 7.796-14.282zm13.06 12.341c1.765 2.679 1.938 5.834 1.462 5.793-1.698-.125-3.381-.757-3.535-1.01-.515-.725.956-6.22 2.074-4.783zm-.875 7.407c-2.356-.995-13.73 7.114-14.413 8.36-.682 1.24.102 5.122 1.332 6.224 2.936 2.704 7.656 4.844 13.047-.106 3.348-3.238 4.237-12.77.034-14.478zM8.108 47.938c-.338.018-3.9 2.706-3.663 4.62.041.39 2.637.136 3.913-.895.571-.424.795-3.766-.25-3.725zm-4.415 7.695c6.89-2.152 13.589 5.674 14.466 8.348-.502 7.5-11.398 10.76-14.466 7.695-5.95-3.782-2.88-15.13 0-16.043zm7.269 23.221c2.219-2.217 3.887-2.254 4.974-3.183 1.977-1.54 2.892-5.369 7.827-7.386 7.704-1.555 12.183 4.518 14.45 11.31 1.644 3.853 3.006 5.602 2.834 6.95-1.225 3.224-5.636 4.827-13.151 4.762-13.275.391-13.705.041-16.71-5.633-.788-1.383-1.034-5.98-.224-6.82z" style="fill:#4b361c;fill-rule:nonzero;stroke:#7c5641;stroke-width:.575149;stroke-linecap:butt;stroke-linejoin:miter;stroke-miterlimit:4;stroke-dasharray:none;stroke-dashoffset:0" vector-effect="non-scaling-stroke"/></svg>