<svg width="853.677" height="146.304" viewBox="0 0 225.869 38.71"><path d="M119.3 134c-2.68 6.4-6.97 18.73-12.86 37-18.3-.67-40.6-1-66.92-1-9.95 0-22.82.33-38.61 1l1.97-6c.17-.06.8-.2 1.87-.41 7.99-1.59 12.65-2.77 13.98-3.53 1.35-.77 3.21-4.11 5.6-10.03 1.36-3.53 6-19.06 13.92-46.59 7.93-27.54 11.89-42.93 11.89-46.16 0-1.44-.7-2.45-2.11-3.05-1.4-.6-4.74-1.44-10.05-2.51-.24 0-1.01-.12-2.32-.36-1.37-.24-2.17-.36-2.41-.36l1.87-6c13.7.67 25.05 1 34.05 1 9.23 0 19.71-.33 31.45-1l-1.7 6c-10.72 1.92-16.7 3.15-17.95 3.69s-2.36 1.68-3.31 3.42c-.95 1.74-2.36 5.48-4.24 11.2-1.87 5.72-4.93 16.15-9.15 31.3-4.23 15.15-7.3 26.47-9.21 33.97-1.9 7.5-4.17 15.64-6.79 24.42h27.61c7.5 0 12.35-.23 14.56-.7 2.2-.48 4.83-2.5 7.86-6.07 3.04-3.56 7.3-9.97 12.78-19.23h8.22zm76.75-47c7.1 3.18 10.65 8.18 10.65 15.02 0 4.82-1.86 10.78-5.55 17.89-3.69 7.09-11.3 17.89-22.83 32.4-11.52 14.51-21.29 25.93-29.31 34.27-8.01 8.33-14.43 13.98-19.25 16.95-4.83 2.98-9.33 4.47-13.5 4.47-4.23 0-8.64-1.44-13.22-4.31 3.7-7.12 6.26-12.35 7.69-15.69h3.12c2.68 3.33 5.42 5 8.22 5 7.08 0 15.81-6.34 26.17-19-1.54-23.26-2.82-39.09-3.83-47.48-1.01-8.41-2.01-13.76-3-16.07-.98-2.3-2.03-3.45-3.17-3.45-1.31 0-4.56 2.34-9.73 7l-3.85-4.2C139.85 94.6 150.27 87 155.93 87c2.45 0 4.37 1.56 5.77 4.69 1.39 3.12 2.64 8.27 3.75 15.43 1.1 7.16 2.39 21.43 3.89 42.8 6.9-8.63 12.12-16.37 15.67-23.22 3.55-6.85 5.33-12.03 5.33-15.53 0-4.19-2.18-6.58-6.52-7.17l-1.34-3.2c4.88-3.75 9.41-8.35 13.57-13.8zm102.06 62.38C281.72 164.46 269.6 172 261.73 172c-3.93 0-5.89-1.83-5.89-5.48 0-.89.2-2.22.58-3.99.38-1.77 1.68-5.91 3.89-12.41l12.07-36.39c.59-1.41.89-2.8.89-4.17 0-1.7-.75-2.56-2.24-2.56-2.2 0-5.29 1.81-9.28 5.44-3.99 3.61-7.8 7.88-11.44 12.81-3.63 4.92-6.51 10.05-8.62 15.39-2.12 5.34-5.2 15.12-9.25 29.36-10.73 0-18.12.33-22.17 1 9-28.03 14.81-46.5 17.43-55.41.6-1.28.89-2.65.89-4.12 0-1.65-.54-2.47-1.61-2.47-.83 0-2.53 1.05-5.09 3.16-2.56 2.09-4.05 3.37-4.47 3.84l-4.01-4.2C230.08 95.27 242.05 87 249.33 87c2.91 0 4.37 1.57 4.37 4.7 0 3.73-3.31 13.85-9.92 30.35l.36.45C262.37 98.84 277.5 87 289.53 87c5.48 0 8.22 2.55 8.22 7.66 0 1.65-.24 3.46-.72 5.42l-15.19 47.4c-.35 1.13-.53 2.05-.53 2.75 0 1.18.6 1.77 1.78 1.77 2.03 0 5.7-2.33 11-7l4.02 4.38zm94.47-59.44c-2.15 5.75-4.09 11.77-5.81 18.06h-3.49c-1.6-4-3.69-6-6.25-6-2.8 0-5.64 1.52-8.5 4.56-2.85 3.03-7.2 8.91-13.05 17.63 1.07 5.04 2.54 10.52 4.38 16.43 1.85 5.91 3.08 9.45 3.67 10.63.59 1.17 1.43 1.75 2.5 1.75 2.38 0 6.68-3.33 12.88-10l4.73 4.02c-5.66 7.41-11.7 13.43-18.14 18.06-6.44 4.62-11.32 6.92-14.66 6.92-3.22 0-5.48-2.54-6.79-7.62l-4.74-17.66C328.35 163.57 317.93 172 308.05 172c-3.88 0-7.96-1.45-12.25-4.33 2.56-5.15 4.76-10.71 6.61-16.67l3.21.39c2.33 3.74 4.77 5.61 7.33 5.61 2.5 0 5.19-1.03 8.08-3.09 2.9-2.07 7.41-7.46 13.55-16.21.41-.74 1.04-1.57 1.87-2.5-.83-3.29-2.4-8.58-4.68-15.89-2.3-7.3-3.67-11.34-4.11-12.12-.45-.79-1.18-1.19-2.19-1.19-1.79 0-5.1 2.37-9.92 7.11-.6.74-1.52 1.7-2.77 2.89l-4.73-3.84c7.08-8.36 13.39-14.64 18.93-18.85 5.54-4.2 9.77-6.31 12.69-6.31 2.08 0 3.81 1.3 5.17 3.89 1.38 2.59 3.32 8.41 5.83 17.45.53 2.42 1.04 4.11 1.52 5.05 8.57-13.3 14.55-21.02 17.95-23.17 3.4-2.15 7.36-3.22 11.89-3.22 3.4 0 6.91.98 10.55 2.94zM592.2 46l-1.61 6c-9.53 1.62-15.07 3.1-16.62 4.42-1.97 1.81-5.25 10.44-9.83 25.86l-11.61 41.2c-5.96 21.68-8.94 33.4-8.94 35.14 0 1.32.51 2.26 1.52 2.82s6.52 1.75 16.53 3.56l-1.78 6c-10.19-.67-20.38-1-30.56-1-11.33 0-22.56.33-33.69 1l1.61-6c.41 0 3.12-.57 8.12-1.7 5.01-1.14 8.08-2.34 9.21-3.6 1.13-1.25 3.13-6.43 5.98-15.51 2.86-9.08 6.32-20.81 10.38-35.19h-43.52c-8.59 30.12-12.87 46.68-12.87 49.7 0 1.18.47 2.08 1.42 2.69.95.62 3.58 1.37 7.87 2.27 4.29.89 6.94 1.34 7.96 1.34l-1.61 6c-14.42-.67-25.41-1-32.97-1-9.12 0-19.31.33-30.57 1l1.43-6c1.97-.51 3.49-.86 4.56-1.05 6.55-1.27 10.55-2.4 12.01-3.39 1.46-.99 3.77-6.42 6.93-16.29 3.15-9.89 7.93-26.3 14.34-49.24s9.61-35.24 9.61-36.92c0-1.2-.48-2.08-1.44-2.64-.95-.57-3.65-1.29-8.12-2.16-4.47-.87-7.03-1.31-7.69-1.31l1.87-6c12.45.67 23 1 31.65 1 10.42 0 21.03-.33 31.81-1l-1.61 6c-2.21 0-5.39.42-9.53 1.27-4.14.83-6.83 1.94-8.08 3.32s-3.2 6.16-5.86 14.33c-2.65 8.18-5.37 17.45-8.17 27.81 15.49.18 29.99.19 43.51.02l7.69-27.86c2.08-8.1 3.13-12.43 3.13-12.97 0-1.19-.69-2.11-2.07-2.73-1.36-.63-6.42-1.69-15.17-3.19l2.06-6c10.54.67 20.43 1 29.66 1 8.28 0 19.3-.33 33.06-1zm69.86 42.98c-6.25 17.47-11.04 31.94-14.39 43.43-3.33 11.49-5 17.68-5 18.59 0 1.34.57 2 1.71 2 1.24 0 5.03-2.66 11.34-8l3.84 4.2c-6.44 6.65-13.02 12.11-19.75 16.39-6.73 4.28-12 6.41-15.81 6.41-3.88 0-5.81-1.36-5.81-4.08 0-2.71 1.33-7.85 4.01-15.44 2.68-7.58 4.5-12.39 5.46-14.45l-.36-.36C609.72 160.56 594.66 172 582.09 172c-5.36 0-8.04-2.37-8.04-7.11 0-2.48.56-5.52 1.7-9.12l7.41-22.74c3.81-11.53 5.83-17.59 6.07-18.19.6-1.88.89-3.28.89-4.2 0-1.09-.47-1.64-1.42-1.64-1.07 0-4.26 2.34-9.56 7l-3.84-4.38C592.21 95.21 604.19 87 611.22 87c3.39 0 5.09 1.79 5.09 5.36 0 4.53-2.92 14.41-8.76 29.64-1.78 4.61-3.72 10.09-5.82 16.45-2.08 6.36-3.12 10.11-3.12 11.25 0 1.53.77 2.3 2.33 2.3 1.72 0 4.69-1.82 8.89-5.47 4.19-3.65 8.25-8.04 12.15-13.15 3.91-5.12 6.86-10.22 8.85-15.3 2-5.08 4.78-13.78 8.36-26.08 8.15-.34 15.78-1.35 22.87-3.02zm92.05 60.4C737.72 164.46 725.6 172 717.73 172c-3.93 0-5.89-1.83-5.89-5.48 0-.89.2-2.22.58-3.99.38-1.77 1.68-5.91 3.89-12.41l12.07-36.39c.59-1.41.89-2.8.89-4.17 0-1.7-.75-2.56-2.24-2.56-2.2 0-5.29 1.81-9.28 5.44-3.99 3.61-7.8 7.88-11.44 12.81-3.63 4.92-6.51 10.05-8.62 15.39-2.12 5.34-5.2 15.12-9.25 29.36-10.73 0-18.12.33-22.17 1 9-28.03 14.81-46.5 17.43-55.41.6-1.28.89-2.65.89-4.12 0-1.65-.54-2.47-1.61-2.47-.83 0-2.53 1.05-5.09 3.16-2.56 2.09-4.05 3.37-4.47 3.84l-4.01-4.2C686.08 95.27 698.05 87 705.33 87c2.91 0 4.37 1.57 4.37 4.7 0 3.73-3.31 13.85-9.92 30.35l.36.45C718.37 98.84 733.5 87 745.53 87c5.48 0 8.22 2.55 8.22 7.66 0 1.65-.24 3.46-.72 5.42l-15.19 47.4c-.35 1.13-.53 2.05-.53 2.75 0 1.18.6 1.77 1.78 1.77 2.03 0 5.7-2.33 11-7l4.02 4.38zm70.51-59.61c-1.9 2.39-3.66 5.14-5.26 8.23-4.89-.46-10.93-.77-18.14-.94-2.5 7.46-5.51 17.67-9.03 30.63-3.51 12.95-5.27 20.49-5.27 22.62 0 1.8.74 2.69 2.24 2.69 2.97 0 8.04-3.33 15.18-10l4.21 4.73c-8.94 8.48-16.79 14.65-23.55 18.5-6.76 3.85-12.11 5.77-16.05 5.77-2.08 0-3.83-.62-5.23-1.86-1.4-1.23-2.1-3.02-2.1-5.39 0-2.11.93-6.27 2.77-12.47L780.66 97c-4.41 0-8.25.34-11.52 1l1.7-6c13.82-4.56 25.22-14.23 34.22-29h7.86c-4.58 13.39-7.56 22.05-8.94 26 10.85 0 17.43-.33 19.75-1l.89 1.77z" transform="matrix(.19459 0 0 .19459 10.955 -2.79)" vector-effect="non-scaling-stroke" opacity="1" fill="#436a41" fill-opacity="1" fill-rule="nonzero" stroke="#000" stroke-width="0" stroke-linecap="butt" stroke-linejoin="miter" stroke-miterlimit="4" stroke-dasharray="none" stroke-dashoffset="0"/><path stroke-linecap="butt" d="M259.91 98.36c4.11-1.57 9.64 21.91 8.36 22.46-4.63 3-14 5.18-16.63 4.63-3.9-.86 4.88-27.83 8.27-27.09zm42.84-51.61c29.4-15.94 50.25 44.75 48.25 50-2.25 25.5-27.75 25.5-36.5 21.75-18.5-4-36.46-56.47-11.75-71.75zM320.25 1c6.39 1.45 2.57 22 1.75 23.16-1.27 2.11-19.55 1.84-19.5-.5 1.05-5.11 13.68-21.39 17.75-22.66Zm57.93.18c3.73-.45 19.97 15.2 19.27 20.09-.27 1.99-9.25 5.13-17.9 2.73-1.09.1-5.34-22.46-1.37-22.82zm-2.09 35.64c25.09-4.13 40.09 14.61 47.27 27.09 7.08 16.36-.17 52.37-35.45 50-23.82-2.55-30-75.09-11.82-77.09zM449 77.73c13.82 2.61 18.81 17.1 18.73 17.09 1.35 5.93-7.17 7.3-9.64 6.73-9.99-.87-12.21-24.8-9.09-23.82zm-185 55.52c7.25-4 55.72 4.94 65.25 31-3.89 12.79-31 38.23-58.75 31.5-11.5-3.5-34.85-45.41-6.5-62.5zM377.5 165c29.74 4.64 31.24 23.86 44.25 31.25 21 13.75 22.75 4.25 26.5 30.75-4 40.25-57.06 44.75-77.56 42-30.25-.12-45.81-4.62-52.44-7.25-31.5-28.25 39.5-99.75 59.25-96.75Zm32.23-18.36c1.2 20.92 27.82 32.36 37.63 34.54 4.37.91 35.46 4.18 38.91-30 1.82-11.27 3.26-27.33-9.09-38.91-18.36-18.18-59.82 13.64-67.45 34.37zm-297.66 13.9c4.93-5.84 9.99-11.39 12.66-10.77 4.82 1 1.6 25.86-1.28 26-.75.61-17.87 2.4-18.72-.09-1.74-4.46 3.21-9.6 7.34-15.14zm80.05-12.39c-2.18 1.23-2.46 12.94 2.91 28.36 1.75 3.52 19.03 1.93 20.03-4.51.9-4.01-17.56-29.04-22.94-23.85zM124 189.67c30.09 2.97 25.73 89.33-2.27 95.51-30.73 4.37-50-20.91-50.73-43.27 3.32-36.58 40.84-53.06 53-52.24zm82 8.71c37.88 1.62 34.12 70.37 6.38 87.74-22.38 10.5-45.5 1.13-47.88-14.74-4.38-49.88 32-73.13 41.5-73zm69.52 63.08c9.39 13.69 10.31 29.82 7.78 29.61-9.04-.64-18-3.87-18.82-5.16-2.74-3.71 5.09-31.8 11.04-24.45zm-4.66 37.86c-12.54-5.09-73.09 36.36-76.72 42.73-3.63 6.34.54 26.18 7.09 31.81 15.63 13.82 40.75 24.76 69.45-.54 17.82-16.55 22.55-65.27.18-74zM43 244.5c-1.8.09-20.76 13.83-19.5 23.61.22 2 14.04.7 20.83-4.57 3.04-2.17 4.23-19.25-1.33-19.04zm-23.5 39.33c36.67-11 72.33 29 77 42.67-2.67 38.33-60.67 55-77 39.33-31.67-19.33-15.33-77.33 0-82zm38.69 118.69C70 391.19 78.88 391 84.67 386.25c10.52-7.87 15.39-27.44 41.66-37.75 41.01-7.95 64.85 23.09 76.92 57.81 8.75 19.69 16 28.63 15.08 35.52-6.52 16.48-30 24.67-70 24.34-70.66 2-72.95.21-88.95-28.79-4.19-7.07-5.5-30.57-1.19-34.86z" transform="matrix(.08163 0 0 .08163 178.096 .322)" vector-effect="non-scaling-stroke" opacity="1" fill="#4b361c" fill-rule="nonzero" stroke="#95705b" stroke-width="1.77638" stroke-linejoin="miter" stroke-miterlimit="4" stroke-dasharray="none" stroke-dashoffset="0" stroke-opacity="1"/></svg>